<svg viewBox="0 0 12 12" width="60px" height="60px" xmlns="http://www.w3.org/2000/svg"><path fill-rule="evenodd" d="M 0,0 5,0 5,1 7,1 7,0 12,0 12,3 11,3 11,5 12,5 12,9 10,9 10,11 8,11 8,12 4,12 4,11 2,11 2,9 0,9 0,5 1,5 1,3 0,3z M 4,5 8,5 8,6 9,6 9,8 3,8 3,6 4,6z" fill="#B6D94C"/><path fill-rule="evenodd" d="M 1,1 2,1 2,2 1,2z" fill="#ffffff"/><path fill-rule="evenodd" d="M 3,1 4,1 4,2 5,2 5,3 4,3 4,4 3,4 3,3 2,3 2,2 3,2z" fill="#ffffff"/><path fill-rule="evenodd" d="M 8,1 9,1 9,2 10,2 10,3 9,3 9,4 8,4 8,3 7,3 7,2 8,2z" fill="#ffffff"/><path fill-rule="evenodd" d="M 10,1 11,1 11,2 10,2z" fill="#ffffff"/><path fill-rule="evenodd" d="M 5,3 7,3 7,4 5,4z" fill="#ffffff"/><path fill-rule="evenodd" d="M 2,4 3,4 3,5 2,5z" fill="#ffffff"/><path fill-rule="evenodd" d="M 9,4 10,4 10,5 9,5z" fill="#ffffff"/><path fill-rule="evenodd" d="M 1,6 2,6 2,8 1,8z" fill="#ffffff"/><path fill-rule="evenodd" d="M 10,6 11,6 11,8 10,8z" fill="#ffffff"/><path fill-rule="evenodd" d="M 3,9 5,9 5,10 3,10z" fill="#ffffff"/><path fill-rule="evenodd" d="M 7,9 9,9 9,10 7,10z" fill="#ffffff"/><path fill-rule="evenodd" d="M 5,10 7,10 7,11 5,11z" fill="#ffffff"/></svg>